<svg xmlns="http://www.w3.org/2000/svg" xmlns:xlink="http://www.w3.org/1999/xlink" width="500" zoomAndPan="magnify" viewBox="0 0 375 374.999991" height="500" preserveAspectRatio="xMidYMid meet" version="1.0"><defs><g/></defs><g fill="#ffffff" fill-opacity="1"><g transform="translate(46.22461, 200.992561)"><g><path d="M 51.984375 -54.3125 C 50.460938 -48.238281 48.691406 -42.910156 46.671875 -38.328125 C 44.660156 -33.753906 42.539062 -29.828125 40.3125 -26.546875 C 38.09375 -23.265625 35.859375 -20.507812 33.609375 -18.28125 C 31.367188 -16.050781 29.234375 -14.253906 27.203125 -12.890625 C 25.171875 -11.535156 23.34375 -10.503906 21.71875 -9.796875 C 19.5 -8.804688 17.347656 -8.082031 15.265625 -7.625 C 16.640625 -6 18 -4.109375 19.34375 -1.953125 C 20.6875 0.191406 22.046875 2.429688 23.421875 4.765625 C 24.617188 6.773438 25.828125 8.769531 27.046875 10.75 C 28.265625 12.726562 29.5 14.546875 30.75 16.203125 C 32.007812 17.867188 33.28125 19.25 34.5625 20.34375 C 35.851562 21.4375 37.15625 22.125 38.46875 22.40625 C 40.195312 22.800781 41.945312 22.394531 43.71875 21.1875 C 43.957031 21.007812 44.207031 20.945312 44.46875 21 C 44.738281 21.0625 44.960938 21.195312 45.140625 21.40625 C 45.285156 21.65625 45.335938 21.921875 45.296875 22.203125 C 45.265625 22.484375 45.125 22.695312 44.875 22.84375 C 43.175781 24 41.460938 24.578125 39.734375 24.578125 C 39.171875 24.578125 38.609375 24.523438 38.046875 24.421875 C 36.492188 24.066406 35 23.304688 33.5625 22.140625 C 32.132812 20.984375 30.75 19.53125 29.40625 17.78125 C 28.0625 16.03125 26.742188 14.117188 25.453125 12.046875 C 24.171875 9.984375 22.894531 7.894531 21.625 5.78125 C 20.28125 3.476562 18.910156 1.207031 17.515625 -1.03125 C 16.117188 -3.269531 14.710938 -5.203125 13.296875 -6.828125 C 12.523438 -3.578125 11.785156 -0.398438 11.078125 2.703125 C 10.367188 5.804688 9.722656 8.742188 9.140625 11.515625 C 8.554688 14.296875 8.0625 16.78125 7.65625 18.96875 C 7.25 21.15625 6.957031 22.921875 6.78125 24.265625 C 6.925781 23.953125 7.085938 23.597656 7.265625 23.203125 C 7.367188 22.960938 7.550781 22.785156 7.8125 22.671875 C 8.082031 22.566406 8.335938 22.566406 8.578125 22.671875 C 8.859375 22.785156 9.039062 22.972656 9.125 23.234375 C 9.21875 23.492188 9.210938 23.769531 9.109375 24.0625 C 8.472656 25.539062 7.925781 26.632812 7.46875 27.34375 C 7.007812 28.050781 6.515625 28.40625 5.984375 28.40625 C 5.847656 28.40625 5.707031 28.382812 5.5625 28.34375 C 5.207031 28.207031 4.953125 27.9375 4.796875 27.53125 C 4.640625 27.125 4.59375 26.425781 4.65625 25.4375 C 4.726562 24.445312 4.90625 23 5.1875 21.09375 C 5.789062 17.625 6.78125 12.710938 8.15625 6.359375 C 8.613281 4.273438 9.109375 2.09375 9.640625 -0.1875 C 10.171875 -2.46875 10.703125 -4.789062 11.234375 -7.15625 C 10.628906 -7.15625 10.0625 -7.171875 9.53125 -7.203125 C 8.125 -7.304688 6.867188 -7.585938 5.765625 -8.046875 C 4.671875 -8.515625 3.84375 -9.097656 3.28125 -9.796875 C 2.46875 -10.828125 2.378906 -11.765625 3.015625 -12.609375 C 3.515625 -13.242188 4.328125 -13.539062 5.453125 -13.5 C 6.585938 -13.46875 7.945312 -13.117188 9.53125 -12.453125 C 10.382812 -12.066406 11.253906 -11.535156 12.140625 -10.859375 C 12.984375 -14.429688 13.828125 -18 14.671875 -21.5625 C 15.523438 -25.132812 16.335938 -28.507812 17.109375 -31.6875 C 17.859375 -34.863281 18.554688 -37.785156 19.203125 -40.453125 C 19.859375 -43.117188 20.414062 -45.425781 20.875 -47.375 C 20.90625 -47.65625 21.046875 -47.863281 21.296875 -48 C 21.546875 -48.144531 21.8125 -48.195312 22.09375 -48.15625 C 22.34375 -48.09375 22.546875 -47.9375 22.703125 -47.6875 C 22.859375 -47.4375 22.90625 -47.171875 22.84375 -46.890625 C 22.375 -44.953125 21.820312 -42.644531 21.1875 -39.96875 C 20.550781 -37.300781 19.847656 -34.378906 19.078125 -31.203125 C 18.335938 -28.171875 17.515625 -24.769531 16.609375 -21 C 15.710938 -17.238281 14.800781 -13.398438 13.875 -9.484375 C 15.082031 -9.691406 16.285156 -9.988281 17.484375 -10.375 C 18.679688 -10.769531 19.828125 -11.195312 20.921875 -11.65625 C 22.441406 -12.363281 24.179688 -13.367188 26.140625 -14.671875 C 28.109375 -15.984375 30.164062 -17.707031 32.3125 -19.84375 C 34.46875 -21.976562 36.613281 -24.644531 38.75 -27.84375 C 40.894531 -31.039062 42.9375 -34.851562 44.875 -39.28125 C 46.820312 -43.71875 48.535156 -48.882812 50.015625 -54.78125 C 50.085938 -55.0625 50.242188 -55.273438 50.484375 -55.421875 C 50.734375 -55.566406 51 -55.601562 51.28125 -55.53125 C 51.53125 -55.457031 51.722656 -55.296875 51.859375 -55.046875 C 52.003906 -54.804688 52.046875 -54.5625 51.984375 -54.3125 Z M 5.671875 -10.390625 C 6.378906 -9.929688 7.179688 -9.601562 8.078125 -9.40625 C 8.984375 -9.207031 9.929688 -9.128906 10.921875 -9.171875 C 10.171875 -9.804688 9.425781 -10.28125 8.6875 -10.59375 C 7.414062 -11.125 6.46875 -11.40625 5.84375 -11.4375 C 5.226562 -11.476562 4.851562 -11.460938 4.71875 -11.390625 C 4.71875 -11.316406 4.785156 -11.179688 4.921875 -10.984375 C 5.066406 -10.796875 5.316406 -10.597656 5.671875 -10.390625 Z M 5.671875 -10.390625 "/></g></g></g><g fill="#ffffff" fill-opacity="1"><g transform="translate(89.023393, 200.992561)"><g><path d="M 15.578125 -49.640625 C 16.035156 -48.972656 16.039062 -47.613281 15.59375 -45.5625 C 15.15625 -43.519531 14.25 -40.988281 12.875 -37.96875 C 11.5 -34.945312 9.660156 -31.597656 7.359375 -27.921875 C 7.328125 -27.890625 7.296875 -27.851562 7.265625 -27.8125 C 6.335938 -24.070312 5.421875 -20.257812 4.515625 -16.375 C 3.617188 -12.488281 2.765625 -8.671875 1.953125 -4.921875 C 1.140625 -1.179688 0.398438 2.335938 -0.265625 5.640625 C -0.929688 8.941406 -1.503906 11.878906 -1.984375 14.453125 C -2.460938 17.035156 -2.804688 19.101562 -3.015625 20.65625 C -2.984375 20.65625 -2.953125 20.65625 -2.921875 20.65625 C -2.628906 20.769531 -2.421875 20.945312 -2.296875 21.1875 C -2.179688 21.4375 -2.175781 21.703125 -2.28125 21.984375 C -2.53125 22.660156 -2.785156 23.269531 -3.046875 23.8125 C -3.304688 24.363281 -3.664062 24.640625 -4.125 24.640625 C -4.238281 24.640625 -4.363281 24.617188 -4.5 24.578125 C -4.820312 24.472656 -5.050781 24.253906 -5.1875 23.921875 C -5.332031 23.585938 -5.351562 22.914062 -5.25 21.90625 C -5.144531 20.90625 -4.914062 19.359375 -4.5625 17.265625 C -3.925781 13.453125 -2.972656 8.472656 -1.703125 2.328125 C -0.773438 -1.972656 0.1875 -6.359375 1.1875 -10.828125 C 2.195312 -15.296875 3.195312 -19.601562 4.1875 -23.75 C 5.175781 -27.90625 6.128906 -31.679688 7.046875 -35.078125 C 7.222656 -35.742188 7.488281 -36.675781 7.84375 -37.875 C 8.195312 -39.082031 8.601562 -40.375 9.0625 -41.75 C 9.519531 -43.125 10.03125 -44.445312 10.59375 -45.71875 C 11.15625 -47 11.738281 -48.050781 12.34375 -48.875 C 12.945312 -49.707031 13.546875 -50.175781 14.140625 -50.28125 C 14.742188 -50.382812 15.222656 -50.171875 15.578125 -49.640625 Z M 9.109375 -34.921875 C 10.804688 -38.097656 12 -40.742188 12.6875 -42.859375 C 13.375 -44.984375 13.769531 -46.519531 13.875 -47.46875 C 13.382812 -46.769531 12.710938 -45.4375 11.859375 -43.46875 C 11.015625 -41.507812 10.097656 -38.660156 9.109375 -34.921875 Z M 9.109375 -34.921875 "/></g></g></g><g fill="#ffffff" fill-opacity="1"><g transform="translate(97.074655, 200.992561)"><g><path d="M 22.203125 -11.765625 C 22.453125 -11.660156 22.617188 -11.472656 22.703125 -11.203125 C 22.796875 -10.941406 22.785156 -10.6875 22.671875 -10.4375 C 22.003906 -9.0625 21.269531 -7.679688 20.46875 -6.296875 C 19.675781 -4.921875 18.847656 -3.660156 17.984375 -2.515625 C 17.117188 -1.367188 16.226562 -0.453125 15.3125 0.234375 C 14.394531 0.921875 13.476562 1.265625 12.5625 1.265625 C 12.382812 1.265625 12.1875 1.25 11.96875 1.21875 C 9.601562 0.757812 8.140625 -2.414062 7.578125 -8.3125 C 6.972656 -7.5 6.273438 -6.585938 5.484375 -5.578125 C 4.691406 -4.578125 3.851562 -3.582031 2.96875 -2.59375 C 2.820312 -2.457031 2.585938 -2.238281 2.265625 -1.9375 C 1.953125 -1.632812 1.582031 -1.394531 1.15625 -1.21875 C 0.738281 -1.039062 0.316406 -1.054688 -0.109375 -1.265625 C -0.953125 -1.585938 -1.359375 -2.507812 -1.328125 -4.03125 C -1.328125 -4.90625 -1.15625 -5.992188 -0.8125 -7.296875 C -0.476562 -8.609375 -0.00390625 -9.925781 0.609375 -11.25 C 1.222656 -12.582031 1.945312 -13.757812 2.78125 -14.78125 C 3.613281 -15.800781 4.539062 -16.488281 5.5625 -16.84375 C 6.195312 -17.09375 6.972656 -17.140625 7.890625 -16.984375 C 8.804688 -16.828125 9.757812 -16.164062 10.75 -15 C 10.925781 -14.78125 11.003906 -14.53125 10.984375 -14.25 C 10.972656 -13.96875 10.863281 -13.738281 10.65625 -13.5625 C 10.4375 -13.382812 10.1875 -13.304688 9.90625 -13.328125 C 9.625 -13.347656 9.394531 -13.460938 9.21875 -13.671875 C 8.375 -14.660156 7.640625 -15.128906 7.015625 -15.078125 C 6.398438 -15.023438 5.878906 -14.835938 5.453125 -14.515625 C 4.679688 -13.953125 3.976562 -13.140625 3.34375 -12.078125 C 2.707031 -11.015625 2.175781 -9.898438 1.75 -8.734375 C 1.320312 -7.578125 1.019531 -6.492188 0.84375 -5.484375 C 0.664062 -4.472656 0.613281 -3.738281 0.6875 -3.28125 C 0.789062 -3.351562 0.90625 -3.441406 1.03125 -3.546875 C 1.15625 -3.648438 1.289062 -3.789062 1.4375 -3.96875 C 2.488281 -5.132812 3.457031 -6.289062 4.34375 -7.4375 C 5.226562 -8.59375 5.988281 -9.609375 6.625 -10.484375 C 6.800781 -10.734375 6.96875 -10.972656 7.125 -11.203125 C 7.28125 -11.429688 7.429688 -11.632812 7.578125 -11.8125 C 7.859375 -12.164062 8.226562 -12.273438 8.6875 -12.140625 C 9.144531 -12.023438 9.394531 -11.722656 9.4375 -11.234375 C 9.539062 -8.929688 9.722656 -7.082031 9.984375 -5.6875 C 10.253906 -4.300781 10.546875 -3.257812 10.859375 -2.5625 C 11.179688 -1.875 11.484375 -1.40625 11.765625 -1.15625 C 12.046875 -0.914062 12.253906 -0.796875 12.390625 -0.796875 C 13.066406 -0.648438 14.144531 -1.335938 15.625 -2.859375 C 17.113281 -4.378906 18.847656 -7.1875 20.828125 -11.28125 C 20.960938 -11.5625 21.160156 -11.742188 21.421875 -11.828125 C 21.691406 -11.921875 21.953125 -11.898438 22.203125 -11.765625 Z M 22.203125 -11.765625 "/></g></g></g><g fill="#ffffff" fill-opacity="1"><g transform="translate(116.779045, 200.992561)"><g><path d="M 23.265625 -12.03125 C 23.503906 -11.882812 23.675781 -11.675781 23.78125 -11.40625 C 23.894531 -11.144531 23.878906 -10.894531 23.734375 -10.65625 C 23.066406 -9.207031 22.242188 -7.582031 21.265625 -5.78125 C 20.296875 -3.976562 19.265625 -2.164062 18.171875 -0.34375 C 17.078125 1.476562 15.960938 3.140625 14.828125 4.640625 C 13.703125 6.140625 12.609375 7.359375 11.546875 8.296875 C 10.492188 9.234375 9.539062 9.703125 8.6875 9.703125 C 8.4375 9.703125 8.207031 9.644531 8 9.53125 C 7.257812 9.25 6.773438 8.578125 6.546875 7.515625 C 6.316406 6.460938 6.34375 4.945312 6.625 2.96875 C 7.113281 -0.601562 8.421875 -5.65625 10.546875 -12.1875 C 10.503906 -12.1875 10.472656 -12.175781 10.453125 -12.15625 C 10.441406 -12.144531 10.421875 -12.140625 10.390625 -12.140625 C 9.679688 -11.640625 8.832031 -11.125 7.84375 -10.59375 C 6.851562 -10.0625 5.828125 -9.707031 4.765625 -9.53125 C 3.703125 -9.351562 2.695312 -9.582031 1.75 -10.21875 C 0.40625 -11.175781 -0.28125 -12.503906 -0.3125 -14.203125 C -0.351562 -15.898438 0.28125 -17.753906 1.59375 -19.765625 C 2.007812 -20.398438 2.5625 -21.101562 3.25 -21.875 C 3.945312 -22.65625 4.671875 -23.253906 5.421875 -23.671875 C 6.179688 -24.097656 6.863281 -24.117188 7.46875 -23.734375 C 7.789062 -23.554688 8.03125 -23.253906 8.1875 -22.828125 C 8.34375 -22.410156 8.332031 -21.757812 8.15625 -20.875 C 7.976562 -19.988281 7.550781 -18.800781 6.875 -17.3125 C 6.207031 -15.832031 5.207031 -13.910156 3.875 -11.546875 C 4.6875 -11.441406 5.59375 -11.671875 6.59375 -12.234375 C 7.601562 -12.804688 8.492188 -13.335938 9.265625 -13.828125 C 10.015625 -14.328125 10.632812 -14.691406 11.125 -14.921875 C 11.625 -15.148438 12.082031 -15.101562 12.5 -14.78125 C 12.894531 -14.46875 13.054688 -14.078125 12.984375 -13.609375 C 12.910156 -13.148438 12.835938 -12.800781 12.765625 -12.5625 C 11.597656 -8.882812 10.695312 -5.828125 10.0625 -3.390625 C 9.425781 -0.953125 8.992188 1.003906 8.765625 2.484375 C 8.535156 3.972656 8.421875 5.085938 8.421875 5.828125 C 8.421875 6.566406 8.472656 7.050781 8.578125 7.28125 C 8.691406 7.507812 8.75 7.644531 8.75 7.6875 C 9.164062 7.75 10.035156 7.066406 11.359375 5.640625 C 12.691406 4.210938 14.273438 2.0625 16.109375 -0.8125 C 17.941406 -3.695312 19.863281 -7.257812 21.875 -11.5 C 22.019531 -11.78125 22.222656 -11.960938 22.484375 -12.046875 C 22.753906 -12.140625 23.015625 -12.132812 23.265625 -12.03125 Z M 1.90625 -15.625 C 1.695312 -14.882812 1.632812 -14.273438 1.71875 -13.796875 C 1.8125 -13.328125 1.945312 -12.945312 2.125 -12.65625 C 3.25 -14.632812 4.101562 -16.242188 4.6875 -17.484375 C 5.269531 -18.722656 5.664062 -19.675781 5.875 -20.34375 C 6.09375 -21.019531 6.21875 -21.5 6.25 -21.78125 C 5.863281 -21.5625 5.378906 -21.148438 4.796875 -20.546875 C 4.210938 -19.953125 3.644531 -19.226562 3.09375 -18.375 C 2.550781 -17.53125 2.15625 -16.613281 1.90625 -15.625 Z M 1.90625 -15.625 "/></g></g></g><g fill="#ffffff" fill-opacity="1"><g transform="translate(137.913592, 200.992561)"><g><path d="M 17.53125 -12.03125 C 17.75 -11.882812 17.890625 -11.671875 17.953125 -11.390625 C 18.023438 -11.109375 17.972656 -10.863281 17.796875 -10.65625 C 16.109375 -8.039062 14.429688 -5.617188 12.765625 -3.390625 C 11.109375 -1.160156 9.472656 0.640625 7.859375 2.015625 C 6.253906 3.390625 4.691406 4.078125 3.171875 4.078125 C 2.859375 4.078125 2.539062 4.039062 2.21875 3.96875 C 0.945312 3.6875 -0.0195312 2.945312 -0.6875 1.75 C -1.21875 0.789062 -1.523438 -0.3125 -1.609375 -1.5625 C -1.703125 -2.8125 -1.640625 -4.085938 -1.421875 -5.390625 C -1.210938 -6.703125 -0.898438 -7.925781 -0.484375 -9.0625 C 0.222656 -11 1.113281 -12.5 2.1875 -13.5625 C 3.269531 -14.625 4.289062 -14.992188 5.25 -14.671875 C 5.425781 -14.640625 5.679688 -14.484375 6.015625 -14.203125 C 6.347656 -13.921875 6.601562 -13.441406 6.78125 -12.765625 C 6.957031 -12.097656 6.867188 -11.128906 6.515625 -9.859375 C 6.441406 -9.578125 6.289062 -9.363281 6.0625 -9.21875 C 5.832031 -9.070312 5.578125 -9.035156 5.296875 -9.109375 C 5.015625 -9.179688 4.800781 -9.34375 4.65625 -9.59375 C 4.519531 -9.84375 4.488281 -10.085938 4.5625 -10.328125 C 4.769531 -11.179688 4.847656 -11.789062 4.796875 -12.15625 C 4.742188 -12.53125 4.679688 -12.734375 4.609375 -12.765625 C 4.460938 -12.765625 4.054688 -12.472656 3.390625 -11.890625 C 2.722656 -11.304688 2.070312 -10.113281 1.4375 -8.3125 C 0.800781 -6.65625 0.453125 -4.96875 0.390625 -3.25 C 0.335938 -1.539062 0.578125 -0.210938 1.109375 0.734375 C 1.460938 1.410156 1.976562 1.816406 2.65625 1.953125 C 3.601562 2.171875 4.675781 1.847656 5.875 0.984375 C 7.082031 0.117188 8.296875 -1.046875 9.515625 -2.515625 C 10.734375 -3.984375 11.914062 -5.546875 13.0625 -7.203125 C 14.207031 -8.867188 15.222656 -10.390625 16.109375 -11.765625 C 16.242188 -11.972656 16.453125 -12.113281 16.734375 -12.1875 C 17.023438 -12.257812 17.289062 -12.207031 17.53125 -12.03125 Z M 17.53125 -12.03125 "/></g></g></g><g fill="#ffffff" fill-opacity="1"><g transform="translate(153.592352, 200.992561)"><g/></g></g><g fill="#ffffff" fill-opacity="1"><g transform="translate(169.853775, 200.992561)"><g><path d="M 55.109375 -10.859375 C 55.347656 -10.679688 55.484375 -10.453125 55.515625 -10.171875 C 55.554688 -9.890625 55.507812 -9.644531 55.375 -9.4375 C 55.15625 -9.144531 54.867188 -9 54.515625 -9 C 54.378906 -9 54.238281 -9.035156 54.09375 -9.109375 C 53.707031 -9.179688 52.535156 -9.257812 50.578125 -9.34375 C 48.617188 -9.4375 46.296875 -9.535156 43.609375 -9.640625 C 42.867188 -6.535156 42.132812 -3.421875 41.40625 -0.296875 C 40.6875 2.828125 40.023438 5.84375 39.421875 8.75 C 38.535156 12.875 37.851562 16.234375 37.375 18.828125 C 36.90625 21.429688 36.585938 23.445312 36.421875 24.875 C 36.265625 26.300781 36.1875 27.332031 36.1875 27.96875 C 36.332031 27.726562 36.492188 27.46875 36.671875 27.1875 C 36.804688 26.9375 37.015625 26.773438 37.296875 26.703125 C 37.578125 26.628906 37.828125 26.664062 38.046875 26.8125 C 38.285156 26.945312 38.441406 27.144531 38.515625 27.40625 C 38.585938 27.675781 38.550781 27.9375 38.40625 28.1875 C 38.0625 28.820312 37.664062 29.410156 37.21875 29.953125 C 36.78125 30.503906 36.296875 30.78125 35.765625 30.78125 C 35.585938 30.78125 35.410156 30.742188 35.234375 30.671875 C 34.921875 30.535156 34.664062 30.242188 34.46875 29.796875 C 34.269531 29.359375 34.171875 28.625 34.171875 27.59375 C 34.171875 26.570312 34.300781 25.144531 34.5625 23.3125 C 34.832031 21.476562 35.25 19.09375 35.8125 16.15625 C 36.382812 13.226562 37.132812 9.644531 38.0625 5.40625 C 39 1.164062 40.160156 -3.867188 41.546875 -9.703125 C 39.773438 -9.734375 37.96875 -9.773438 36.125 -9.828125 C 34.289062 -9.878906 32.507812 -9.925781 30.78125 -9.96875 C 30.351562 -10 29.945312 -10.015625 29.5625 -10.015625 C 29.175781 -10.015625 28.789062 -10.015625 28.40625 -10.015625 C 26.144531 -5.742188 23.953125 -1.738281 21.828125 2 C 19.710938 5.75 17.769531 8.828125 16 11.234375 C 14.90625 12.679688 13.867188 13.632812 12.890625 14.09375 C 11.921875 14.550781 11.054688 14.726562 10.296875 14.625 C 9.546875 14.519531 8.941406 14.328125 8.484375 14.046875 C 7.316406 13.367188 6.328125 12.285156 5.515625 10.796875 C 4.703125 9.316406 4.046875 7.570312 3.546875 5.5625 C 3.054688 3.550781 2.765625 1.425781 2.671875 -0.8125 C 2.585938 -3.0625 2.710938 -5.28125 3.046875 -7.46875 C 3.378906 -9.65625 3.9375 -11.648438 4.71875 -13.453125 C 6.300781 -17.054688 8.617188 -19.476562 11.671875 -20.71875 C 14.734375 -21.957031 18.332031 -21.921875 22.46875 -20.609375 C 22.75 -20.535156 22.953125 -20.375 23.078125 -20.125 C 23.203125 -19.882812 23.207031 -19.625 23.09375 -19.34375 C 23.03125 -19.09375 22.875 -18.894531 22.625 -18.75 C 22.375 -18.613281 22.109375 -18.597656 21.828125 -18.703125 C 20.585938 -19.085938 19.257812 -19.347656 17.84375 -19.484375 C 16.4375 -19.628906 15.035156 -19.535156 13.640625 -19.203125 C 12.242188 -18.867188 10.9375 -18.179688 9.71875 -17.140625 C 8.5 -16.097656 7.445312 -14.585938 6.5625 -12.609375 C 5.75 -10.773438 5.203125 -8.820312 4.921875 -6.75 C 4.640625 -4.6875 4.566406 -2.628906 4.703125 -0.578125 C 4.847656 1.460938 5.140625 3.375 5.578125 5.15625 C 6.023438 6.945312 6.582031 8.46875 7.25 9.71875 C 7.925781 10.976562 8.671875 11.835938 9.484375 12.296875 C 10.960938 13.140625 12.585938 12.378906 14.359375 10.015625 C 16.015625 7.753906 17.847656 4.859375 19.859375 1.328125 C 21.878906 -2.203125 23.96875 -6 26.125 -10.0625 C 21.8125 -10.207031 18.359375 -10.320312 15.765625 -10.40625 C 13.171875 -10.5 11.609375 -10.597656 11.078125 -10.703125 C 10.796875 -10.773438 10.570312 -10.925781 10.40625 -11.15625 C 10.25 -11.382812 10.207031 -11.640625 10.28125 -11.921875 C 10.3125 -12.203125 10.453125 -12.410156 10.703125 -12.546875 C 10.953125 -12.691406 11.195312 -12.75 11.4375 -12.71875 C 11.789062 -12.644531 12.734375 -12.570312 14.265625 -12.5 C 15.804688 -12.425781 17.707031 -12.351562 19.96875 -12.28125 C 22.226562 -12.21875 24.632812 -12.148438 27.1875 -12.078125 C 28.34375 -14.378906 29.515625 -16.6875 30.703125 -19 C 31.890625 -21.3125 33.066406 -23.597656 34.234375 -25.859375 C 37.054688 -31.472656 39.421875 -36.109375 41.328125 -39.765625 C 43.234375 -43.421875 44.800781 -46.253906 46.03125 -48.265625 C 47.269531 -50.273438 48.285156 -51.644531 49.078125 -52.375 C 49.878906 -53.101562 50.582031 -53.359375 51.1875 -53.140625 C 51.820312 -52.890625 52.191406 -52.367188 52.296875 -51.578125 C 52.398438 -50.785156 52.398438 -49.804688 52.296875 -48.640625 C 52.085938 -46.347656 51.46875 -42.921875 50.4375 -38.359375 C 50.125 -36.835938 49.675781 -34.894531 49.09375 -32.53125 C 48.507812 -30.164062 47.878906 -27.550781 47.203125 -24.6875 C 46.710938 -22.675781 46.203125 -20.566406 45.671875 -18.359375 C 45.140625 -16.148438 44.609375 -13.914062 44.078125 -11.65625 C 47.046875 -11.550781 49.289062 -11.460938 50.8125 -11.390625 C 52.332031 -11.316406 53.390625 -11.234375 53.984375 -11.140625 C 54.585938 -11.054688 54.960938 -10.960938 55.109375 -10.859375 Z M 30.84375 -12.03125 C 33.101562 -11.957031 35.148438 -11.894531 36.984375 -11.84375 C 38.816406 -11.789062 40.492188 -11.742188 42.015625 -11.703125 C 42.972656 -15.804688 44.035156 -20.296875 45.203125 -25.171875 C 45.898438 -28.023438 46.53125 -30.632812 47.09375 -33 C 47.664062 -35.375 48.128906 -37.300781 48.484375 -38.78125 C 49.046875 -41.46875 49.46875 -43.625 49.75 -45.25 C 50.03125 -46.875 50.207031 -48.117188 50.28125 -48.984375 C 50.351562 -49.847656 50.367188 -50.457031 50.328125 -50.8125 C 49.734375 -50.207031 48.90625 -49.03125 47.84375 -47.28125 C 46.78125 -45.539062 45.585938 -43.429688 44.265625 -40.953125 C 42.941406 -38.484375 41.570312 -35.851562 40.15625 -33.0625 C 38.75 -30.269531 37.375 -27.566406 36.03125 -24.953125 C 34.96875 -22.835938 33.878906 -20.691406 32.765625 -18.515625 C 31.660156 -16.347656 30.554688 -14.1875 29.453125 -12.03125 C 29.671875 -12.03125 29.894531 -12.03125 30.125 -12.03125 C 30.351562 -12.03125 30.59375 -12.03125 30.84375 -12.03125 Z M 30.84375 -12.03125 "/></g></g></g><g fill="#ffffff" fill-opacity="1"><g transform="translate(228.013516, 200.992561)"><g><path d="M 15.578125 -49.640625 C 16.035156 -48.972656 16.039062 -47.613281 15.59375 -45.5625 C 15.15625 -43.519531 14.25 -40.988281 12.875 -37.96875 C 11.5 -34.945312 9.660156 -31.597656 7.359375 -27.921875 C 7.328125 -27.890625 7.296875 -27.851562 7.265625 -27.8125 C 6.335938 -24.070312 5.421875 -20.257812 4.515625 -16.375 C 3.617188 -12.488281 2.765625 -8.671875 1.953125 -4.921875 C 1.140625 -1.179688 0.398438 2.335938 -0.265625 5.640625 C -0.929688 8.941406 -1.503906 11.878906 -1.984375 14.453125 C -2.460938 17.035156 -2.804688 19.101562 -3.015625 20.65625 C -2.984375 20.65625 -2.953125 20.65625 -2.921875 20.65625 C -2.628906 20.769531 -2.421875 20.945312 -2.296875 21.1875 C -2.179688 21.4375 -2.175781 21.703125 -2.28125 21.984375 C -2.53125 22.660156 -2.785156 23.269531 -3.046875 23.8125 C -3.304688 24.363281 -3.664062 24.640625 -4.125 24.640625 C -4.238281 24.640625 -4.363281 24.617188 -4.5 24.578125 C -4.820312 24.472656 -5.050781 24.253906 -5.1875 23.921875 C -5.332031 23.585938 -5.351562 22.914062 -5.25 21.90625 C -5.144531 20.90625 -4.914062 19.359375 -4.5625 17.265625 C -3.925781 13.453125 -2.972656 8.472656 -1.703125 2.328125 C -0.773438 -1.972656 0.1875 -6.359375 1.1875 -10.828125 C 2.195312 -15.296875 3.195312 -19.601562 4.1875 -23.75 C 5.175781 -27.90625 6.128906 -31.679688 7.046875 -35.078125 C 7.222656 -35.742188 7.488281 -36.675781 7.84375 -37.875 C 8.195312 -39.082031 8.601562 -40.375 9.0625 -41.75 C 9.519531 -43.125 10.03125 -44.445312 10.59375 -45.71875 C 11.15625 -47 11.738281 -48.050781 12.34375 -48.875 C 12.945312 -49.707031 13.546875 -50.175781 14.140625 -50.28125 C 14.742188 -50.382812 15.222656 -50.171875 15.578125 -49.640625 Z M 9.109375 -34.921875 C 10.804688 -38.097656 12 -40.742188 12.6875 -42.859375 C 13.375 -44.984375 13.769531 -46.519531 13.875 -47.46875 C 13.382812 -46.769531 12.710938 -45.4375 11.859375 -43.46875 C 11.015625 -41.507812 10.097656 -38.660156 9.109375 -34.921875 Z M 9.109375 -34.921875 "/></g></g></g><g fill="#ffffff" fill-opacity="1"><g transform="translate(236.064778, 200.992561)"><g><path d="M 29.890625 -11.875 C 30.097656 -11.695312 30.207031 -11.460938 30.21875 -11.171875 C 30.238281 -10.890625 30.160156 -10.644531 29.984375 -10.4375 C 25.503906 -5.175781 21.957031 -3.039062 19.34375 -4.03125 C 17.46875 -4.738281 16.457031 -6.976562 16.3125 -10.75 C 15.925781 -10.050781 15.507812 -9.25 15.0625 -8.34375 C 14.625 -7.445312 14.265625 -6.710938 13.984375 -6.140625 C 13.773438 -5.609375 13.5625 -5.128906 13.34375 -4.703125 C 13.132812 -4.285156 12.941406 -3.9375 12.765625 -3.65625 C 12.660156 -3.445312 12.472656 -3.140625 12.203125 -2.734375 C 11.941406 -2.328125 11.609375 -1.972656 11.203125 -1.671875 C 10.796875 -1.367188 10.328125 -1.289062 9.796875 -1.4375 C 9.160156 -1.613281 8.679688 -2.078125 8.359375 -2.828125 C 8.046875 -3.585938 7.851562 -4.414062 7.78125 -5.3125 C 7.71875 -6.21875 7.6875 -6.957031 7.6875 -7.53125 C 7.6875 -7.988281 7.6875 -8.425781 7.6875 -8.84375 C 7.6875 -9.269531 7.703125 -9.660156 7.734375 -10.015625 C 6.492188 -8.242188 5.304688 -6.414062 4.171875 -4.53125 C 3.046875 -2.644531 1.847656 -0.484375 0.578125 1.953125 C 0.160156 2.765625 -0.296875 3.171875 -0.796875 3.171875 C -0.972656 3.171875 -1.128906 3.117188 -1.265625 3.015625 C -1.441406 2.953125 -1.597656 2.835938 -1.734375 2.671875 C -1.878906 2.515625 -1.960938 2.195312 -1.984375 1.71875 C -2.003906 1.238281 -1.929688 0.507812 -1.765625 -0.46875 C -1.609375 -1.457031 -1.300781 -2.835938 -0.84375 -4.609375 C -0.3125 -6.765625 0.3125 -8.898438 1.03125 -11.015625 C 1.757812 -13.140625 2.492188 -15.050781 3.234375 -16.75 C 3.335938 -17.03125 3.519531 -17.222656 3.78125 -17.328125 C 4.050781 -17.429688 4.3125 -17.410156 4.5625 -17.265625 C 4.84375 -17.160156 5.023438 -16.972656 5.109375 -16.703125 C 5.203125 -16.441406 5.195312 -16.191406 5.09375 -15.953125 C 4.132812 -13.722656 3.273438 -11.394531 2.515625 -8.96875 C 1.753906 -6.550781 1.160156 -4.445312 0.734375 -2.65625 C 1.835938 -4.59375 2.914062 -6.398438 3.96875 -8.078125 C 5.03125 -9.753906 6.144531 -11.390625 7.3125 -12.984375 C 7.414062 -13.117188 7.597656 -13.3125 7.859375 -13.5625 C 8.128906 -13.8125 8.492188 -13.863281 8.953125 -13.71875 C 9.410156 -13.539062 9.664062 -13.203125 9.71875 -12.703125 C 9.769531 -12.210938 9.78125 -11.382812 9.75 -10.21875 C 9.75 -9.832031 9.738281 -9.410156 9.71875 -8.953125 C 9.707031 -8.492188 9.703125 -8.019531 9.703125 -7.53125 C 9.703125 -6.46875 9.769531 -5.597656 9.90625 -4.921875 C 10.050781 -4.253906 10.175781 -3.796875 10.28125 -3.546875 C 10.351562 -3.617188 10.445312 -3.742188 10.5625 -3.921875 C 10.6875 -4.097656 10.835938 -4.328125 11.015625 -4.609375 C 11.160156 -4.859375 11.328125 -5.191406 11.515625 -5.609375 C 11.710938 -6.035156 11.9375 -6.5 12.1875 -7 C 13.101562 -8.976562 13.851562 -10.492188 14.4375 -11.546875 C 15.019531 -12.609375 15.519531 -13.332031 15.9375 -13.71875 C 16.363281 -14.113281 16.804688 -14.253906 17.265625 -14.140625 C 17.835938 -14.003906 18.164062 -13.660156 18.25 -13.109375 C 18.34375 -12.566406 18.390625 -12.132812 18.390625 -11.8125 C 18.347656 -10.15625 18.476562 -8.8125 18.78125 -7.78125 C 19.082031 -6.757812 19.515625 -6.144531 20.078125 -5.9375 C 20.710938 -5.6875 21.726562 -5.96875 23.125 -6.78125 C 24.519531 -7.59375 26.296875 -9.253906 28.453125 -11.765625 C 28.628906 -11.972656 28.859375 -12.085938 29.140625 -12.109375 C 29.421875 -12.128906 29.671875 -12.050781 29.890625 -11.875 Z M 29.890625 -11.875 "/></g></g></g><g fill="#ffffff" fill-opacity="1"><g transform="translate(263.661516, 200.992561)"><g><path d="M 17.90625 -11.8125 C 18.15625 -11.675781 18.296875 -11.460938 18.328125 -11.171875 C 18.367188 -10.890625 18.316406 -10.644531 18.171875 -10.4375 C 16.085938 -7.539062 14.179688 -5.144531 12.453125 -3.25 C 10.722656 -1.363281 8.992188 0.195312 7.265625 1.4375 C 5.953125 2.351562 4.660156 2.8125 3.390625 2.8125 C 2.398438 2.8125 1.535156 2.546875 0.796875 2.015625 C 0.296875 1.660156 -0.1875 1.03125 -0.65625 0.125 C -1.132812 -0.769531 -1.390625 -2.070312 -1.421875 -3.78125 C -1.460938 -5.5 -1.039062 -7.753906 -0.15625 -10.546875 C -0.15625 -10.546875 -0.15625 -10.5625 -0.15625 -10.59375 C 0.90625 -13.988281 2.148438 -16.578125 3.578125 -18.359375 C 5.003906 -20.140625 6.234375 -21.050781 7.265625 -21.09375 C 8.078125 -21.125 8.601562 -20.769531 8.84375 -20.03125 C 9.238281 -19 8.78125 -17.539062 7.46875 -15.65625 C 6.164062 -13.769531 4.242188 -11.765625 1.703125 -9.640625 C 0.921875 -7.171875 0.546875 -5.238281 0.578125 -3.84375 C 0.617188 -2.445312 0.816406 -1.4375 1.171875 -0.8125 C 1.523438 -0.195312 1.804688 0.195312 2.015625 0.375 C 3.078125 1.144531 4.4375 0.929688 6.09375 -0.265625 C 7.71875 -1.390625 9.359375 -2.863281 11.015625 -4.6875 C 12.679688 -6.507812 14.503906 -8.816406 16.484375 -11.609375 C 16.660156 -11.816406 16.890625 -11.945312 17.171875 -12 C 17.453125 -12.050781 17.695312 -11.988281 17.90625 -11.8125 Z M 6.890625 -18.859375 C 6.503906 -18.609375 5.972656 -18.085938 5.296875 -17.296875 C 4.628906 -16.503906 3.941406 -15.347656 3.234375 -13.828125 C 4.503906 -15.066406 5.40625 -16.117188 5.9375 -16.984375 C 6.46875 -17.847656 6.785156 -18.472656 6.890625 -18.859375 Z M 6.890625 -18.859375 "/></g></g></g><g fill="#ffffff" fill-opacity="1"><g transform="translate(279.075425, 200.992561)"><g><path d="M 15.53125 -12.078125 C 15.769531 -11.941406 15.914062 -11.726562 15.96875 -11.4375 C 16.019531 -11.15625 15.976562 -10.894531 15.84375 -10.65625 C 15.164062 -9.59375 14.316406 -8.40625 13.296875 -7.09375 C 12.273438 -5.789062 11.160156 -4.546875 9.953125 -3.359375 C 8.753906 -2.179688 7.5625 -1.203125 6.375 -0.421875 C 5.195312 0.347656 4.113281 0.734375 3.125 0.734375 C 2.695312 0.734375 2.328125 0.664062 2.015625 0.53125 C 0.816406 0 0.15625 -1.28125 0.03125 -3.3125 C -0.09375 -5.34375 0.316406 -8.210938 1.265625 -11.921875 C 1.335938 -12.203125 1.5 -12.410156 1.75 -12.546875 C 2 -12.691406 2.242188 -12.726562 2.484375 -12.65625 C 2.773438 -12.59375 2.988281 -12.4375 3.125 -12.1875 C 3.269531 -11.9375 3.304688 -11.6875 3.234375 -11.4375 C 2.671875 -9.175781 2.316406 -7.382812 2.171875 -6.0625 C 2.023438 -4.738281 1.992188 -3.738281 2.078125 -3.0625 C 2.171875 -2.394531 2.304688 -1.945312 2.484375 -1.71875 C 2.660156 -1.488281 2.769531 -1.375 2.8125 -1.375 C 3.269531 -1.164062 3.9375 -1.316406 4.8125 -1.828125 C 5.695312 -2.335938 6.6875 -3.09375 7.78125 -4.09375 C 8.882812 -5.101562 9.988281 -6.269531 11.09375 -7.59375 C 12.207031 -8.925781 13.207031 -10.316406 14.09375 -11.765625 C 14.269531 -12.015625 14.488281 -12.164062 14.75 -12.21875 C 15.019531 -12.269531 15.28125 -12.222656 15.53125 -12.078125 Z M 3.015625 -16.3125 C 2.304688 -16.351562 1.941406 -16.554688 1.921875 -16.921875 C 1.910156 -17.296875 2.070312 -17.675781 2.40625 -18.0625 C 2.75 -18.457031 3.09375 -18.722656 3.4375 -18.859375 C 4.007812 -19.035156 4.425781 -19 4.6875 -18.75 C 4.957031 -18.507812 5.082031 -18.191406 5.0625 -17.796875 C 5.039062 -17.410156 4.863281 -17.054688 4.53125 -16.734375 C 4.195312 -16.421875 3.691406 -16.28125 3.015625 -16.3125 Z M 3.015625 -16.3125 "/></g></g></g><g fill="#ffffff" fill-opacity="1"><g transform="translate(292.476547, 200.992561)"><g><path d="M 22.625 -44.234375 C 22.726562 -44.171875 22.832031 -44.003906 22.9375 -43.734375 C 23.039062 -43.472656 23.09375 -43.015625 23.09375 -42.359375 C 23.09375 -41.703125 22.953125 -40.75 22.671875 -39.5 C 22.390625 -38.25 21.914062 -36.582031 21.25 -34.5 C 21.144531 -34.207031 21.046875 -33.910156 20.953125 -33.609375 C 20.867188 -33.316406 20.769531 -33.03125 20.65625 -32.75 C 19.84375 -30.195312 18.851562 -27.335938 17.6875 -24.171875 C 16.53125 -21.015625 14.960938 -17.566406 12.984375 -13.828125 C 12.523438 -11.535156 12.046875 -9.085938 11.546875 -6.484375 C 11.054688 -3.890625 10.5625 -1.144531 10.0625 1.75 C 9.425781 5.664062 8.921875 8.894531 8.546875 11.4375 C 8.179688 13.988281 7.925781 16.015625 7.78125 17.515625 C 7.644531 19.015625 7.5625 20.148438 7.53125 20.921875 C 7.8125 20.816406 8.09375 20.816406 8.375 20.921875 C 8.625 21.066406 8.789062 21.269531 8.875 21.53125 C 8.957031 21.800781 8.945312 22.0625 8.84375 22.3125 C 8.664062 22.695312 8.414062 23.125 8.09375 23.59375 C 7.78125 24.070312 7.394531 24.3125 6.9375 24.3125 C 6.800781 24.3125 6.660156 24.296875 6.515625 24.265625 C 6.160156 24.160156 5.894531 23.90625 5.71875 23.5 C 5.539062 23.09375 5.460938 22.3125 5.484375 21.15625 C 5.503906 20.007812 5.65625 18.273438 5.9375 15.953125 C 6.351562 12.273438 7.054688 7.4375 8.046875 1.4375 C 8.617188 -1.851562 9.203125 -5.050781 9.796875 -8.15625 C 9.265625 -7.3125 8.707031 -6.445312 8.125 -5.5625 C 7.550781 -4.675781 6.945312 -3.773438 6.3125 -2.859375 C 5.351562 -1.441406 4.484375 -0.445312 3.703125 0.125 C 2.929688 0.707031 2.253906 1.015625 1.671875 1.046875 C 1.085938 1.085938 0.601562 1.003906 0.21875 0.796875 C -0.5625 0.335938 -1.054688 -0.472656 -1.265625 -1.640625 C -1.484375 -2.804688 -1.457031 -4.117188 -1.1875 -5.578125 C -0.925781 -7.046875 -0.492188 -8.453125 0.109375 -9.796875 C 1.335938 -12.410156 2.753906 -14.253906 4.359375 -15.328125 C 5.972656 -16.410156 7.347656 -16.796875 8.484375 -16.484375 C 8.722656 -16.367188 9.109375 -16.125 9.640625 -15.75 C 10.171875 -15.382812 10.488281 -14.691406 10.59375 -13.671875 C 10.769531 -13.953125 10.929688 -14.234375 11.078125 -14.515625 C 12.378906 -20.585938 13.664062 -25.820312 14.9375 -30.21875 C 16.207031 -34.625 17.398438 -38.050781 18.515625 -40.5 C 19.628906 -42.957031 20.578125 -44.3125 21.359375 -44.5625 C 21.847656 -44.738281 22.269531 -44.628906 22.625 -44.234375 Z M 4.65625 -4.03125 C 5.507812 -5.257812 6.316406 -6.472656 7.078125 -7.671875 C 7.835938 -8.878906 8.550781 -10.066406 9.21875 -11.234375 C 8.6875 -11.410156 8.472656 -11.765625 8.578125 -12.296875 C 8.578125 -12.535156 8.566406 -12.929688 8.546875 -13.484375 C 8.535156 -14.035156 8.316406 -14.378906 7.890625 -14.515625 C 7.816406 -14.554688 7.710938 -14.578125 7.578125 -14.578125 C 6.898438 -14.578125 6.023438 -14.113281 4.953125 -13.1875 C 3.878906 -12.269531 2.878906 -10.84375 1.953125 -8.90625 C 1.359375 -7.632812 0.972656 -6.421875 0.796875 -5.265625 C 0.617188 -4.117188 0.582031 -3.15625 0.6875 -2.375 C 0.789062 -1.601562 0.984375 -1.144531 1.265625 -1 C 1.378906 -0.9375 1.71875 -1.0625 2.28125 -1.375 C 2.84375 -1.695312 3.632812 -2.582031 4.65625 -4.03125 Z M 19.28125 -35.125 C 19.707031 -36.363281 20.035156 -37.429688 20.265625 -38.328125 C 20.492188 -39.234375 20.679688 -40.003906 20.828125 -40.640625 C 20.148438 -39.265625 19.332031 -37.179688 18.375 -34.390625 C 17.425781 -31.597656 16.390625 -28.007812 15.265625 -23.625 C 16.003906 -25.425781 16.644531 -27.140625 17.1875 -28.765625 C 17.738281 -30.390625 18.242188 -31.910156 18.703125 -33.328125 C 18.804688 -33.640625 18.898438 -33.945312 18.984375 -34.25 C 19.078125 -34.550781 19.175781 -34.84375 19.28125 -35.125 Z M 19.28125 -35.125 "/></g></g></g><g fill="#ffffff" fill-opacity="1"><g transform="translate(309.055785, 200.992561)"><g><path d="M 22.203125 -11.765625 C 22.453125 -11.660156 22.617188 -11.472656 22.703125 -11.203125 C 22.796875 -10.941406 22.785156 -10.6875 22.671875 -10.4375 C 22.003906 -9.0625 21.269531 -7.679688 20.46875 -6.296875 C 19.675781 -4.921875 18.847656 -3.660156 17.984375 -2.515625 C 17.117188 -1.367188 16.226562 -0.453125 15.3125 0.234375 C 14.394531 0.921875 13.476562 1.265625 12.5625 1.265625 C 12.382812 1.265625 12.1875 1.25 11.96875 1.21875 C 9.601562 0.757812 8.140625 -2.414062 7.578125 -8.3125 C 6.972656 -7.5 6.273438 -6.585938 5.484375 -5.578125 C 4.691406 -4.578125 3.851562 -3.582031 2.96875 -2.59375 C 2.820312 -2.457031 2.585938 -2.238281 2.265625 -1.9375 C 1.953125 -1.632812 1.582031 -1.394531 1.15625 -1.21875 C 0.738281 -1.039062 0.316406 -1.054688 -0.109375 -1.265625 C -0.953125 -1.585938 -1.359375 -2.507812 -1.328125 -4.03125 C -1.328125 -4.90625 -1.15625 -5.992188 -0.8125 -7.296875 C -0.476562 -8.609375 -0.00390625 -9.925781 0.609375 -11.25 C 1.222656 -12.582031 1.945312 -13.757812 2.78125 -14.78125 C 3.613281 -15.800781 4.539062 -16.488281 5.5625 -16.84375 C 6.195312 -17.09375 6.972656 -17.140625 7.890625 -16.984375 C 8.804688 -16.828125 9.757812 -16.164062 10.75 -15 C 10.925781 -14.78125 11.003906 -14.53125 10.984375 -14.25 C 10.972656 -13.96875 10.863281 -13.738281 10.65625 -13.5625 C 10.4375 -13.382812 10.1875 -13.304688 9.90625 -13.328125 C 9.625 -13.347656 9.394531 -13.460938 9.21875 -13.671875 C 8.375 -14.660156 7.640625 -15.128906 7.015625 -15.078125 C 6.398438 -15.023438 5.878906 -14.835938 5.453125 -14.515625 C 4.679688 -13.953125 3.976562 -13.140625 3.34375 -12.078125 C 2.707031 -11.015625 2.175781 -9.898438 1.75 -8.734375 C 1.320312 -7.578125 1.019531 -6.492188 0.84375 -5.484375 C 0.664062 -4.472656 0.613281 -3.738281 0.6875 -3.28125 C 0.789062 -3.351562 0.90625 -3.441406 1.03125 -3.546875 C 1.15625 -3.648438 1.289062 -3.789062 1.4375 -3.96875 C 2.488281 -5.132812 3.457031 -6.289062 4.34375 -7.4375 C 5.226562 -8.59375 5.988281 -9.609375 6.625 -10.484375 C 6.800781 -10.734375 6.96875 -10.972656 7.125 -11.203125 C 7.28125 -11.429688 7.429688 -11.632812 7.578125 -11.8125 C 7.859375 -12.164062 8.226562 -12.273438 8.6875 -12.140625 C 9.144531 -12.023438 9.394531 -11.722656 9.4375 -11.234375 C 9.539062 -8.929688 9.722656 -7.082031 9.984375 -5.6875 C 10.253906 -4.300781 10.546875 -3.257812 10.859375 -2.5625 C 11.179688 -1.875 11.484375 -1.40625 11.765625 -1.15625 C 12.046875 -0.914062 12.253906 -0.796875 12.390625 -0.796875 C 13.066406 -0.648438 14.144531 -1.335938 15.625 -2.859375 C 17.113281 -4.378906 18.847656 -7.1875 20.828125 -11.28125 C 20.960938 -11.5625 21.160156 -11.742188 21.421875 -11.828125 C 21.691406 -11.921875 21.953125 -11.898438 22.203125 -11.765625 Z M 22.203125 -11.765625 "/></g></g></g></svg>